<svg id="visual" viewBox="0 0 960 540" width="960" height="540" xmlns="http://www.w3.org/2000/svg" xmlns:xlink="http://www.w3.org/1999/xlink" version="1.1"><path d="M0 244L80 212.5C160 181 320 118 480 82C640 46 800 37 880 32.5L960 28L960 0L880 0C800 0 640 0 480 0C320 0 160 0 80 0L0 0Z" fill="#213D48"></path><path d="M0 503L80 464.3C160 425.7 320 348.3 480 307C640 265.7 800 260.3 880 257.7L960 255L960 26L880 30.5C800 35 640 44 480 80C320 116 160 179 80 210.5L0 242Z" fill="#EB8369"></path><path d="M0 541L80 541C160 541 320 541 480 541C640 541 800 541 880 541L960 541L960 253L880 255.7C800 258.3 640 263.7 480 305C320 346.3 160 423.7 80 462.3L0 501Z" fill="#274754"></path></svg>
