<svg id="visual" viewBox="0 0 540 960" width="540" height="960" xmlns="http://www.w3.org/2000/svg" xmlns:xlink="http://www.w3.org/1999/xlink" version="1.1"><path d="M0 433L45 377C90 321 180 209 270 145C360 81 450 65 495 57L540 49L540 0L495 0C450 0 360 0 270 0C180 0 90 0 45 0L0 0Z" fill="#213D48"></path><path d="M0 894L45 825.2C90 756.3 180 618.7 270 545C360 471.3 450 461.7 495 456.8L540 452L540 47L495 55C450 63 360 79 270 143C180 207 90 319 45 375L0 431Z" fill="#EB8369"></path><path d="M0 961L45 961C90 961 180 961 270 961C360 961 450 961 495 961L540 961L540 450L495 454.8C450 459.7 360 469.3 270 543C180 616.7 90 754.3 45 823.2L0 892Z" fill="#213D48"></path></svg>
